# xmcd
#
# Track frame offsets:
#	150
#	13413
#	27208
#	40586
#	50299
#	63840
#	81479
#	99598
#	113081
#	123343
#	139438
#	157532
#
# Disc length: 2423 seconds
#
# Revision: 0
# Processed by: cddbd v1.5.1PL0 Copyright (c) Steve Scherf et al.
# Submitted via: dBpowerAMP V4.0
#
DISCID=9409750c
DTITLE=The Mattoid - Hello
DYEAR=2003
DGENRE=Anti-Folk
TTITLE0=Funeral Party (Live)
TTITLE1=Shiny Woman
TTITLE2=Slackers Pain
TTITLE3=Juri Gagarin
TTITLE4=Pyramids
TTITLE5=Happiness
TTITLE6=Rat Poison
TTITLE7=Blue Suede Shoes
TTITLE8=Party Time
TTITLE9=Eagle Hi
TTITLE10=(silent)
TTITLE11=(bonus)
EXTD=
EXTT0=
EXTT1=
EXTT2=
EXTT3=
EXTT4=
EXTT5=
EXTT6=
EXTT7=
EXTT8=
EXTT9=
EXTT10=
EXTT11=
PLAYORDER=
